<svg id="Layer_1" data-name="Layer 1" xmlns="http://www.w3.org/2000/svg" viewBox="0 0 850 460"><path d="M169.17,74.62q26.4,0,44.33,5.35a100.08,100.08,0,0,1,31.43,15.4A105.57,105.57,0,0,1,277,133.73a112.35,112.35,0,0,1,11.64,50.93A112.35,112.35,0,0,1,277,235.59,105.57,105.57,0,0,1,244.93,274a99.86,99.86,0,0,1-31.43,15.4q-17.92,5.36-44.33,5.35H100V74.62Zm77,110a79.27,79.27,0,0,0-4.24-26.1,72.27,72.27,0,0,0-11.79-21.69,62.32,62.32,0,0,0-22.8-18.08q-13.67-6.44-33.48-6.44H142.44V257h31.44q19.81,0,33.48-6.45a62.19,62.19,0,0,0,22.8-18.07A72.21,72.21,0,0,0,242,210.75,79.17,79.17,0,0,0,246.19,184.66Z"/><path d="M392.38,74.62q26.42,0,44.33,5.35a100,100,0,0,1,31.44,15.4,105.77,105.77,0,0,1,32.07,38.36,112.35,112.35,0,0,1,11.63,50.93,112.35,112.35,0,0,1-11.63,50.93A105.77,105.77,0,0,1,468.15,274a99.81,99.81,0,0,1-31.44,15.4q-17.93,5.36-44.33,5.35H323.22V74.62Zm77,110a79.27,79.27,0,0,0-4.25-26.1,72.27,72.27,0,0,0-11.79-21.69,62.29,62.29,0,0,0-22.79-18.08q-13.68-6.44-33.48-6.44H365.66V257H397.1q19.8,0,33.48-6.45a62.16,62.16,0,0,0,22.79-18.07,72.21,72.21,0,0,0,11.79-21.7A79.17,79.17,0,0,0,469.41,184.66Z"/><path d="M750,245a98.47,98.47,0,0,1-36.78,36.79q-23.6,13.67-55.18,13.67a115.28,115.28,0,0,1-43.86-8.25,108.67,108.67,0,0,1-35.13-22.64,103.27,103.27,0,0,1-23.34-34.42,110.68,110.68,0,0,1-8.49-43.63,108.1,108.1,0,0,1,8.25-42,109.57,109.57,0,0,1,22.4-34.42A104.62,104.62,0,0,1,611.35,87a103.24,103.24,0,0,1,42-8.49q29.22,0,51.16,11.32a108.65,108.65,0,0,1,37,31.12L734,126.65a90,90,0,0,0-34-29.24A100.93,100.93,0,0,0,654.27,87a95.47,95.47,0,0,0-68.85,28.53,101.81,101.81,0,0,0-21,31.6,98.83,98.83,0,0,0-7.78,39.37,103,103,0,0,0,7.78,40.56,93,93,0,0,0,21.69,31.6A103.46,103.46,0,0,0,658,287q28.76,0,50.46-13a95.53,95.53,0,0,0,34-33.71Z"/><path d="M121.14,372V370a10.39,10.39,0,0,1-3.41,2,11.75,11.75,0,0,1-3.79.61,13.11,13.11,0,0,1-5.47-1.17,12,12,0,0,1-4.3-3.2,13.4,13.4,0,0,1-2.43-4.09,14.72,14.72,0,0,1,.11-10.32,13.38,13.38,0,0,1,2.72-4.27,12.84,12.84,0,0,1,4-2.85,11.76,11.76,0,0,1,5-1,11.42,11.42,0,0,1,7.31,2.4V334.15h6.94V372Zm-.27-16.81a8.07,8.07,0,0,0-2.72-2.32,7.67,7.67,0,0,0-3.68-.88,6.32,6.32,0,0,0-4.86,2.16,7.78,7.78,0,0,0-1.3,7.76,6.31,6.31,0,0,0,1.44,2.22,6.83,6.83,0,0,0,4.88,2,7.38,7.38,0,0,0,3.6-.88,7.52,7.52,0,0,0,2.64-2.32Z"/><path d="M134.75,337a4.21,4.21,0,0,1,1.33-3.15,4.64,4.64,0,0,1,6.4,0,4.37,4.37,0,0,1,0,6.3,4.64,4.64,0,0,1-6.4,0A4.18,4.18,0,0,1,134.75,337Zm8,35.06h-6.94V346.16h6.94Z"/><path d="M175.57,370.6a23,23,0,0,1-.59,5.73,11.84,11.84,0,0,1-1.76,3.87,11.7,11.7,0,0,1-4.75,3.82,16,16,0,0,1-6.72,1.36A17.14,17.14,0,0,1,158,385a17.47,17.47,0,0,1-3.41-1.12,16.64,16.64,0,0,1-3-1.71,13.61,13.61,0,0,1-2.32-2.11l4.38-4.53a14.65,14.65,0,0,0,1.25,1.22,9.55,9.55,0,0,0,1.71,1.2,10.4,10.4,0,0,0,2.24.94,10,10,0,0,0,2.86.37,8.73,8.73,0,0,0,3-.5,5.49,5.49,0,0,0,2.24-1.58,5.94,5.94,0,0,0,1.2-2.24,14,14,0,0,0,.4-3.84v-.86a11,11,0,0,1-6.94,2.35,13.27,13.27,0,0,1-5.49-1.17,11.92,11.92,0,0,1-4.33-3.2,12.94,12.94,0,0,1-2.4-4.09,15,15,0,0,1,.14-10.32,13,13,0,0,1,2.72-4.27,12.73,12.73,0,0,1,4-2.85,11.76,11.76,0,0,1,5-1,12,12,0,0,1,4.13.69,12.27,12.27,0,0,1,3.45,1.92v-2.08h6.67Zm-6.94-15.37a8.07,8.07,0,0,0-2.72-2.32,7.69,7.69,0,0,0-3.68-.88,6.37,6.37,0,0,0-2.78.59,6.25,6.25,0,0,0-2.08,1.57,7.34,7.34,0,0,0-1.33,2.27,7.93,7.93,0,0,0,0,5.49,6.45,6.45,0,0,0,1.44,2.22,7.15,7.15,0,0,0,2.19,1.47,7,7,0,0,0,2.7.53,7.44,7.44,0,0,0,3.6-.88,7.7,7.7,0,0,0,2.64-2.32Z"/><path d="M182.5,337a4.22,4.22,0,0,1,1.34-3.15,4.64,4.64,0,0,1,6.4,0,4.4,4.4,0,0,1,0,6.3,4.64,4.64,0,0,1-6.4,0A4.19,4.19,0,0,1,182.5,337Zm8,35.06h-6.94V346.16h6.94Z"/><path d="M218,372a8.19,8.19,0,0,1-2,.4,23,23,0,0,1-2.33.13,13.48,13.48,0,0,1-5.39-1,8.93,8.93,0,0,1-3.57-2.75,8.48,8.48,0,0,1-1.47-3.15,19.52,19.52,0,0,1-.45-4.59V352h-7.21v-5.87h7.21V339h6.94v7.2h8.53V352h-8.53v9.87a7.44,7.44,0,0,0,.21,2,3.55,3.55,0,0,0,.64,1.29,3.69,3.69,0,0,0,1.39.93,5.68,5.68,0,0,0,2.13.35c.5,0,1,0,1.6-.08a8.49,8.49,0,0,0,1.23-.19Z"/><path d="M248.93,372h-6.67V370a10.19,10.19,0,0,1-3.41,2,11.71,11.71,0,0,1-3.79.61,13.15,13.15,0,0,1-5.47-1.17,12,12,0,0,1-4.3-3.2,13.18,13.18,0,0,1-2.42-4.09,13.8,13.8,0,0,1-.88-5,14.33,14.33,0,0,1,1-5.34,13.23,13.23,0,0,1,2.73-4.27,12.69,12.69,0,0,1,4-2.85,11.81,11.81,0,0,1,5-1,12,12,0,0,1,4.13.69,12.21,12.21,0,0,1,3.44,1.92v-2.08h6.67ZM242,355.23a8.1,8.1,0,0,0-2.73-2.32,7.67,7.67,0,0,0-3.68-.88,6.36,6.36,0,0,0-2.77.59,6.25,6.25,0,0,0-2.08,1.57,7.37,7.37,0,0,0-1.34,2.27,7.86,7.86,0,0,0,0,5.49,6.45,6.45,0,0,0,1.44,2.22,6.83,6.83,0,0,0,4.88,2,7.45,7.45,0,0,0,3.61-.88A7.7,7.7,0,0,0,242,363Z"/><path d="M263.87,372h-6.93V334.15h6.93Z"/><path d="M304.42,372V370a10.19,10.19,0,0,1-3.41,2,11.71,11.71,0,0,1-3.79.61,13.15,13.15,0,0,1-5.47-1.17,12,12,0,0,1-4.29-3.2,13.4,13.4,0,0,1-2.43-4.09,13.8,13.8,0,0,1-.88-5,14.13,14.13,0,0,1,1-5.34,13,13,0,0,1,2.72-4.27,12.73,12.73,0,0,1,4-2.85,11.73,11.73,0,0,1,5-1,11.46,11.46,0,0,1,7.31,2.4V334.15h6.94V372Zm-.26-16.81a8.07,8.07,0,0,0-2.72-2.32,7.69,7.69,0,0,0-3.68-.88,6.37,6.37,0,0,0-2.78.59,6.25,6.25,0,0,0-2.08,1.57,7.34,7.34,0,0,0-1.33,2.27,7.93,7.93,0,0,0,0,5.49,6.45,6.45,0,0,0,1.44,2.22,6.83,6.83,0,0,0,4.89,2,7.44,7.44,0,0,0,3.6-.88,7.7,7.7,0,0,0,2.64-2.32Z"/><path d="M341.14,367.93a12.22,12.22,0,0,1-4.73,3.44,15,15,0,0,1-5.89,1.2,14.71,14.71,0,0,1-5.36-1,12.43,12.43,0,0,1-7.16-7,14.25,14.25,0,0,1-1-5.52,15.14,15.14,0,0,1,.88-5.15,13.37,13.37,0,0,1,2.54-4.3,12.29,12.29,0,0,1,4-3,12.09,12.09,0,0,1,5.21-1.09,11.34,11.34,0,0,1,4.91,1.06,12.33,12.33,0,0,1,3.86,2.86,13,13,0,0,1,2.54,4.19,14.44,14.44,0,0,1,.91,5.12,11.37,11.37,0,0,1-.16,2H323.69a7,7,0,0,0,.74,2.51,6.53,6.53,0,0,0,1.52,1.92,7.14,7.14,0,0,0,4.73,1.71,7.59,7.59,0,0,0,3.92-1,10.87,10.87,0,0,0,2.59-2Zm-6.46-12.17a5.4,5.4,0,0,0-.51-1.68,4.93,4.93,0,0,0-1.06-1.46,5,5,0,0,0-1.58-1,5.08,5.08,0,0,0-2-.37,5.39,5.39,0,0,0-3.74,1.39,5.24,5.24,0,0,0-1.81,3.14Z"/><path d="M347.65,372V346.16h6.67v2.08a9.77,9.77,0,0,1,3.33-2,11.14,11.14,0,0,1,3.65-.61,11,11,0,0,1,4.91,1.09,11.28,11.28,0,0,1,3.79,3,13.91,13.91,0,0,1,3.92-2.85,11.53,11.53,0,0,1,5.26-1.2,11.92,11.92,0,0,1,5.12,1.12,10.82,10.82,0,0,1,3.95,3,11.7,11.7,0,0,1,1.92,3.6,15.53,15.53,0,0,1,.7,4.93V372h-6.94v-14a8.62,8.62,0,0,0-.35-2.75,5.23,5.23,0,0,0-.93-1.68,4.15,4.15,0,0,0-1.84-1.25,6.55,6.55,0,0,0-2.06-.35,6.3,6.3,0,0,0-2.1.35,8.46,8.46,0,0,0-3.21,2,7.88,7.88,0,0,0-.93,1.09c.07.43.12.88.16,1.36s.05,1,.05,1.52V372h-6.93v-14a8.62,8.62,0,0,0-.35-2.75,5.23,5.23,0,0,0-.93-1.68,4.21,4.21,0,0,0-1.84-1.25,6.55,6.55,0,0,0-2.06-.35,6.34,6.34,0,0,0-2.05.32,8.15,8.15,0,0,0-1.71.8,7.22,7.22,0,0,0-1.33,1,10.38,10.38,0,0,0-.94,1V372Z"/><path d="M396.2,359.13a13.52,13.52,0,0,1,1-5.26,13.32,13.32,0,0,1,2.88-4.3,14.4,14.4,0,0,1,15.32-2.88,13.79,13.79,0,0,1,4.37,2.88,13.18,13.18,0,0,1,2.89,4.3,13.52,13.52,0,0,1,1,5.26,13.26,13.26,0,0,1-1,5.25,13.6,13.6,0,0,1-2.89,4.27,13,13,0,0,1-4.37,2.88,14.91,14.91,0,0,1-10.94,0,13.14,13.14,0,0,1-4.38-2.88,13.74,13.74,0,0,1-2.88-4.27A13.26,13.26,0,0,1,396.2,359.13Zm6.94,0a7.31,7.31,0,0,0,.51,2.72,7.2,7.2,0,0,0,1.38,2.24,6.36,6.36,0,0,0,2.14,1.52,7.21,7.21,0,0,0,5.57,0,6.16,6.16,0,0,0,2.16-1.52,7.23,7.23,0,0,0,1.39-2.24,7.31,7.31,0,0,0,.51-2.72,7.46,7.46,0,0,0-.51-2.75,7.15,7.15,0,0,0-1.39-2.27,6.16,6.16,0,0,0-2.16-1.52,7.21,7.21,0,0,0-5.57,0,6.36,6.36,0,0,0-2.14,1.52,7.12,7.12,0,0,0-1.38,2.27A7.46,7.46,0,0,0,403.14,359.13Z"/><path d="M453.62,366.76a14.49,14.49,0,0,1-5.18,4.43,15,15,0,0,1-6.56,1.38,14.43,14.43,0,0,1-5.55-1,12.93,12.93,0,0,1-4.4-2.88,13.6,13.6,0,0,1-2.89-4.27,13.69,13.69,0,0,1,0-10.54,13.48,13.48,0,0,1,7.34-7.17,14.28,14.28,0,0,1,5.52-1,13.88,13.88,0,0,1,6.22,1.41,13.25,13.25,0,0,1,4.67,3.76l-4.91,4.32a8.69,8.69,0,0,0-2.59-2.24,7,7,0,0,0-8.38,1.23,7.07,7.07,0,0,0-2,5,7.34,7.34,0,0,0,.53,2.82,6.64,6.64,0,0,0,3.71,3.69,7.73,7.73,0,0,0,2.91.53,6.62,6.62,0,0,0,3.74-1.07,8.64,8.64,0,0,0,2.45-2.35Z"/><path d="M474.69,352.3a6.63,6.63,0,0,0-1.07-.19,13.3,13.3,0,0,0-1.44-.08,6.08,6.08,0,0,0-2.13.37,8.17,8.17,0,0,0-1.84.94,7.67,7.67,0,0,0-1.41,1.2,5.75,5.75,0,0,0-.91,1.22V372H459V346.16h6.67v2.61a8.09,8.09,0,0,1,3.15-2.29,10.9,10.9,0,0,1,4.38-.85,11.27,11.27,0,0,1,1.25.05c.34,0,.7.09,1.09.16Z"/><path d="M504.84,372h-6.67V370a10.39,10.39,0,0,1-3.41,2,11.75,11.75,0,0,1-3.79.61,13.11,13.11,0,0,1-5.47-1.17,12,12,0,0,1-4.3-3.2,13.4,13.4,0,0,1-2.43-4.09,14.72,14.72,0,0,1,.11-10.32,13.38,13.38,0,0,1,2.72-4.27,12.84,12.84,0,0,1,4-2.85,11.76,11.76,0,0,1,5-1,12,12,0,0,1,4.14.69,12.21,12.21,0,0,1,3.44,1.92v-2.08h6.67Zm-6.94-16.81a8.07,8.07,0,0,0-2.72-2.32,7.67,7.67,0,0,0-3.68-.88,6.32,6.32,0,0,0-4.86,2.16,7.78,7.78,0,0,0-1.3,7.76,6.31,6.31,0,0,0,1.44,2.22,6.83,6.83,0,0,0,4.88,2,7.38,7.38,0,0,0,3.6-.88A7.52,7.52,0,0,0,497.9,363Z"/><path d="M536.32,366.76a14.46,14.46,0,0,1-5.17,4.43,15.05,15.05,0,0,1-6.57,1.38,14.5,14.5,0,0,1-5.55-1,13.13,13.13,0,0,1-4.4-2.88,13.41,13.41,0,0,1-2.88-4.27,13.26,13.26,0,0,1-1-5.25,13,13,0,0,1,1.07-5.29,13.57,13.57,0,0,1,2.93-4.29,13.43,13.43,0,0,1,4.4-2.88,14.29,14.29,0,0,1,5.53-1,13.81,13.81,0,0,1,6.21,1.41,13.25,13.25,0,0,1,4.67,3.76l-4.91,4.32a8.45,8.45,0,0,0-2.59-2.24,6.76,6.76,0,0,0-3.38-.85,6.94,6.94,0,0,0-2.78.56,7,7,0,0,0-3.68,3.76,7.06,7.06,0,0,0-.53,2.78,7.16,7.16,0,0,0,.53,2.82,6.52,6.52,0,0,0,1.47,2.22,6.81,6.81,0,0,0,2.24,1.47,7.73,7.73,0,0,0,2.91.53,6.58,6.58,0,0,0,3.73-1.07,8.39,8.39,0,0,0,2.45-2.35Z"/><path d="M542.62,384.84l7.15-15.42-11.58-23.26h7.63l7.58,15.53,7-15.53h7.31l-17.83,38.68Z"/><path d="M609.05,366.76a14.49,14.49,0,0,1-5.18,4.43,15,15,0,0,1-6.56,1.38,14.5,14.5,0,0,1-5.55-1,13,13,0,0,1-4.4-2.88,13.41,13.41,0,0,1-2.88-4.27,13.75,13.75,0,0,1,0-10.54,13.6,13.6,0,0,1,2.94-4.29,13.33,13.33,0,0,1,4.4-2.88,14.28,14.28,0,0,1,5.52-1,13.85,13.85,0,0,1,6.22,1.41,13.25,13.25,0,0,1,4.67,3.76l-4.91,4.32a8.45,8.45,0,0,0-2.59-2.24,6.77,6.77,0,0,0-3.39-.85,6.89,6.89,0,0,0-2.77.56,7.07,7.07,0,0,0-4.22,6.54,7.16,7.16,0,0,0,.54,2.82,6.65,6.65,0,0,0,1.46,2.22,6.86,6.86,0,0,0,2.25,1.47,7.72,7.72,0,0,0,2.9.53,6.59,6.59,0,0,0,3.74-1.07,8.51,8.51,0,0,0,2.45-2.35Z"/><path d="M636.42,367.93a12.19,12.19,0,0,1-4.72,3.44,15.07,15.07,0,0,1-5.9,1.2,14.75,14.75,0,0,1-5.36-1,12.45,12.45,0,0,1-7.15-7,14.25,14.25,0,0,1-1-5.52,14.9,14.9,0,0,1,.88-5.15,13.19,13.19,0,0,1,2.54-4.3,12.19,12.19,0,0,1,4-3,12,12,0,0,1,5.2-1.09,11.27,11.27,0,0,1,4.91,1.06,12.26,12.26,0,0,1,3.87,2.86,13,13,0,0,1,2.54,4.19,14.43,14.43,0,0,1,.9,5.12,10.46,10.46,0,0,1-.16,2H619a7.21,7.21,0,0,0,.75,2.51,6.37,6.37,0,0,0,1.52,1.92,7.15,7.15,0,0,0,2.14,1.26A7.29,7.29,0,0,0,626,367a7.6,7.6,0,0,0,3.93-1,10.6,10.6,0,0,0,2.58-2ZM630,355.76a5.68,5.68,0,0,0-.51-1.68,5.11,5.11,0,0,0-2.64-2.48,5.17,5.17,0,0,0-2-.37,5.36,5.36,0,0,0-3.73,1.39,5.25,5.25,0,0,0-1.82,3.14Z"/><path d="M642.93,372V346.16h6.67v2.08a11.79,11.79,0,0,1,3.31-1.92,11.16,11.16,0,0,1,4-.69,11.35,11.35,0,0,1,5,1.12,11.55,11.55,0,0,1,3.93,3,11.14,11.14,0,0,1,2,3.63,17.65,17.65,0,0,1,.69,5.44V372h-6.93V358.32a9.22,9.22,0,0,0-.4-3,5,5,0,0,0-1.15-1.84,5.27,5.27,0,0,0-3.9-1.44,6.84,6.84,0,0,0-2.1.32,8.94,8.94,0,0,0-4.19,2.88V372Z"/><path d="M694.42,372a8.09,8.09,0,0,1-2,.4,22.64,22.64,0,0,1-2.32.13,13.48,13.48,0,0,1-5.39-1,8.86,8.86,0,0,1-3.57-2.75,8.48,8.48,0,0,1-1.47-3.15,19.52,19.52,0,0,1-.45-4.59V352H672v-5.87h7.21V339h6.93v7.2h8.54V352h-8.54v9.87a7,7,0,0,0,.22,2,3.55,3.55,0,0,0,.64,1.29,3.65,3.65,0,0,0,1.38.93,5.73,5.73,0,0,0,2.14.35c.5,0,1,0,1.6-.08a8.49,8.49,0,0,0,1.23-.19Z"/><path d="M717.1,352.3a6.63,6.63,0,0,0-1.07-.19,13.3,13.3,0,0,0-1.44-.08,6.08,6.08,0,0,0-2.13.37,8.17,8.17,0,0,0-1.84.94,7.75,7.75,0,0,0-1.42,1.2,6,6,0,0,0-.9,1.22V372h-6.94V346.16H708v2.61a8.09,8.09,0,0,1,3.15-2.29,10.85,10.85,0,0,1,4.37-.85,11.35,11.35,0,0,1,1.26.05c.34,0,.7.09,1.09.16Z"/><path d="M744.47,367.93a12.19,12.19,0,0,1-4.72,3.44,15.07,15.07,0,0,1-5.9,1.2,14.75,14.75,0,0,1-5.36-1,12.45,12.45,0,0,1-7.15-7,14.25,14.25,0,0,1-1-5.52,14.9,14.9,0,0,1,.88-5.15,13.19,13.19,0,0,1,2.54-4.3,12.19,12.19,0,0,1,4-3,12,12,0,0,1,5.2-1.09,11.27,11.27,0,0,1,4.91,1.06,12.26,12.26,0,0,1,3.87,2.86,13,13,0,0,1,2.54,4.19,14.43,14.43,0,0,1,.9,5.12,10.46,10.46,0,0,1-.16,2H727a7.21,7.21,0,0,0,.75,2.51,6.37,6.37,0,0,0,1.52,1.92,7.15,7.15,0,0,0,2.14,1.26A7.29,7.29,0,0,0,734,367a7.6,7.6,0,0,0,3.93-1,10.6,10.6,0,0,0,2.58-2ZM738,355.76a5.68,5.68,0,0,0-.51-1.68,5.11,5.11,0,0,0-2.64-2.48,5.17,5.17,0,0,0-2-.37,5.36,5.36,0,0,0-3.73,1.39,5.25,5.25,0,0,0-1.82,3.14Z"/></svg>