<svg id="Layer_1" data-name="Layer 1" xmlns="http://www.w3.org/2000/svg" viewBox="0 0 850 380"><defs><style>.cls-1{fill:#e1bbb4;}</style></defs><path class="cls-1" d="M169.17,79.57q26.4,0,44.33,5.34a100.1,100.1,0,0,1,31.43,15.41A105.57,105.57,0,0,1,277,138.68a112.35,112.35,0,0,1,11.64,50.93A112.35,112.35,0,0,1,277,240.54a105.54,105.54,0,0,1-32.07,38.35A99.67,99.67,0,0,1,213.5,294.3q-17.92,5.35-44.33,5.34H100V79.57Zm77,110a79.27,79.27,0,0,0-4.24-26.1,72.27,72.27,0,0,0-11.79-21.69,62.32,62.32,0,0,0-22.8-18.08q-13.67-6.43-33.48-6.44H142.44V261.92h31.44q19.81,0,33.48-6.45a62.12,62.12,0,0,0,22.8-18.08A72,72,0,0,0,242,215.7,79.17,79.17,0,0,0,246.19,189.61Z"/><path class="cls-1" d="M392.38,79.57q26.42,0,44.33,5.34a100,100,0,0,1,31.44,15.41,105.77,105.77,0,0,1,32.07,38.36,112.35,112.35,0,0,1,11.63,50.93,112.35,112.35,0,0,1-11.63,50.93,105.74,105.74,0,0,1-32.07,38.35,99.62,99.62,0,0,1-31.44,15.41q-17.93,5.35-44.33,5.34H323.22V79.57Zm77,110a79.27,79.27,0,0,0-4.25-26.1,72.27,72.27,0,0,0-11.79-21.69,62.29,62.29,0,0,0-22.79-18.08q-13.68-6.43-33.48-6.44H365.66V261.92H397.1q19.8,0,33.48-6.45a62.08,62.08,0,0,0,22.79-18.08,72,72,0,0,0,11.79-21.69A79.17,79.17,0,0,0,469.41,189.61Z"/><path class="cls-1" d="M750,250a98.37,98.37,0,0,1-36.78,36.78q-23.6,13.68-55.18,13.68a115.47,115.47,0,0,1-43.86-8.25,108.83,108.83,0,0,1-35.13-22.64,103.37,103.37,0,0,1-23.34-34.42,110.68,110.68,0,0,1-8.49-43.63,108.1,108.1,0,0,1,8.25-42,109.45,109.45,0,0,1,22.4-34.42A104.46,104.46,0,0,1,611.35,92a103.24,103.24,0,0,1,42-8.49q29.22,0,51.16,11.32a108.65,108.65,0,0,1,37,31.12L734,131.6a90,90,0,0,0-34-29.24A100.93,100.93,0,0,0,654.27,92a95.47,95.47,0,0,0-68.85,28.53,101.81,101.81,0,0,0-21,31.6,98.83,98.83,0,0,0-7.78,39.37,103,103,0,0,0,7.78,40.56,93,93,0,0,0,21.69,31.6A103.46,103.46,0,0,0,658,291.94q28.76,0,50.46-13a95.48,95.48,0,0,0,34-33.72Z"/></svg>